<?xml version="1.0" encoding="UTF-8" standalone="no"?>
<!DOCTYPE svg PUBLIC "-//W3C//DTD SVG 1.1//EN" "http://www.w3.org/Graphics/SVG/1.1/DTD/svg11.dtd">
<svg width="100%" height="100%" viewBox="0 0 54 40" version="1.1" xmlns="http://www.w3.org/2000/svg" xmlns:xlink="http://www.w3.org/1999/xlink" xml:space="preserve" xmlns:serif="http://www.serif.com/" style="fill-rule:evenodd;clip-rule:evenodd;stroke-linejoin:round;stroke-miterlimit:2;">
    <g id="Rectangle-33.svg" serif:id="Rectangle 33.svg" transform="matrix(1,0,0,1,41.5,20)">
        <g transform="matrix(1,0,0,1,-10,-17.5)">
            <path d="M20,10C20,4.481 15.519,0 10,0C4.481,0 0,4.481 0,10L0,25C0,30.519 4.481,35 10,35C15.519,35 20,30.519 20,25L20,10Z" style="fill:rgb(240,99,184);"/>
        </g>
    </g>
    <g id="Rectangle-32.svg" serif:id="Rectangle 32.svg" transform="matrix(1,0,0,1,12.5,27.5)">
        <g transform="matrix(1,0,0,1,-10,-10)">
            <path d="M20,10C20,4.481 15.519,0 10,0C4.481,0 0,4.481 0,10C0,15.519 4.481,20 10,20C15.519,20 20,15.519 20,10Z" style="fill:rgb(156,105,226);"/>
        </g>
    </g>
</svg>
