<?xml version="1.0" encoding="UTF-8" standalone="no"?>
<!DOCTYPE svg PUBLIC "-//W3C//DTD SVG 1.1//EN" "http://www.w3.org/Graphics/SVG/1.1/DTD/svg11.dtd">
<svg width="100%" height="100%" viewBox="0 0 18 18" version="1.1" xmlns="http://www.w3.org/2000/svg" xmlns:xlink="http://www.w3.org/1999/xlink" xml:space="preserve" xmlns:serif="http://www.serif.com/" style="fill-rule:evenodd;clip-rule:evenodd;stroke-linejoin:round;stroke-miterlimit:2;">
    <path d="M16,5L2,5C1.4,5 1,4.6 1,4C1,3.5 1.4,3 2,3L16,3C16.5,3 17,3.4 17,4C17,4.6 16.6,5 16,5ZM2,10L16,10C16.5,10 17,9.6 17,9C17,8.5 16.6,8 16,8L2,8C1.4,8 1,8.4 1,9C1,9.6 1.4,10 2,10ZM16,13L2,13C1.5,13 1,13.4 1,14C1,14.5 1.4,15 2,15L16,15C16.5,15 17,14.6 17,14C17,13.4 16.6,13 16,13Z" style="fill:rgb(156,105,226);fill-rule:nonzero;"/>
</svg>
